<?xml version="1.0" standalone="no"?>
<!DOCTYPE svg PUBLIC "-//W3C//DTD SVG 20010904//EN"
 "http://www.w3.org/TR/2001/REC-SVG-20010904/DTD/svg10.dtd">
<svg version="1.0" xmlns="http://www.w3.org/2000/svg"
 width="260.000000pt" height="260.000000pt" viewBox="0 0 260.000000 260.000000"
 preserveAspectRatio="xMidYMid meet">
<metadata>
Created by potrace 1.14, written by Peter Selinger 2001-2017
</metadata>
<g transform="translate(0.000000,260.000000) scale(0.100000,-0.100000)"
fill="#000000" stroke="none">
<path d="M0 1300 l0 -1300 1300 0 1300 0 0 1300 0 1300 -1300 0 -1300 0 0
-1300z m976 564 c71 -18 135 -48 174 -80 l28 -24 -31 -70 c-18 -38 -35 -70
-39 -70 -3 0 -30 15 -58 34 -155 102 -403 83 -492 -38 -37 -50 -47 -74 -64
-151 -37 -167 8 -359 103 -439 52 -44 124 -65 224 -66 47 0 111 5 142 11 l57
12 0 128 0 128 -112 3 -113 3 0 70 0 70 203 3 202 2 0 -258 0 -259 -56 -22
c-130 -50 -366 -66 -493 -35 -139 34 -259 129 -316 249 -60 128 -72 344 -26
486 57 179 200 299 393 328 78 12 195 6 274 -15z m1100 0 c71 -18 135 -48 174
-80 l28 -24 -31 -70 c-18 -38 -35 -70 -39 -70 -3 0 -30 15 -58 34 -155 102
-403 83 -492 -38 -37 -50 -47 -74 -64 -151 -37 -167 8 -359 103 -439 52 -44
124 -65 224 -66 47 0 111 5 142 11 l57 12 0 128 0 128 -112 3 -113 3 0 70 0
70 203 3 202 2 0 -258 0 -259 -56 -22 c-130 -50 -366 -66 -493 -35 -139 34
-259 129 -316 249 -60 128 -72 344 -26 486 57 179 200 299 393 328 78 12 195
6 274 -15z"/>
</g>
</svg>
